<svg width="32" height="32" viewBox="0 0 32 32" fill="none" xmlns="http://www.w3.org/2000/svg">
<path d="M11.6836 24.089L6.83331 25.1668L7.91114 20.3166C7.2233 19.0303 6.83331 17.5608 6.83331 16.0002C6.83331 10.9376 10.9374 6.8335 16 6.8335C21.0625 6.8335 25.1666 10.9376 25.1666 16.0002C25.1666 21.0627 21.0625 25.1668 16 25.1668C14.4394 25.1668 12.9698 24.7769 11.6836 24.089ZM11.4166 16.0002C11.4166 18.5314 13.4687 20.5835 16 20.5835C18.5313 20.5835 20.5833 18.5314 20.5833 16.0002H18.75C18.75 17.519 17.5188 18.7502 16 18.7502C14.4812 18.7502 13.25 17.519 13.25 16.0002H11.4166Z" fill="#4338CA"/>
</svg>
