<svg width="18" height="18" viewBox="0 0 18 18" fill="none" xmlns="http://www.w3.org/2000/svg">
<g id="more-line">
<path id="Vector" d="M3.79167 7.95825C3.21875 7.95825 2.75 8.427 2.75 8.99992C2.75 9.57284 3.21875 10.0416 3.79167 10.0416C4.36458 10.0416 4.83333 9.57284 4.83333 8.99992C4.83333 8.427 4.36458 7.95825 3.79167 7.95825ZM14.2083 7.95825C13.6354 7.95825 13.1667 8.427 13.1667 8.99992C13.1667 9.57284 13.6354 10.0416 14.2083 10.0416C14.7812 10.0416 15.25 9.57284 15.25 8.99992C15.25 8.427 14.7812 7.95825 14.2083 7.95825ZM9 7.95825C8.42708 7.95825 7.95833 8.427 7.95833 8.99992C7.95833 9.57284 8.42708 10.0416 9 10.0416C9.57292 10.0416 10.0417 9.57284 10.0417 8.99992C10.0417 8.427 9.57292 7.95825 9 7.95825Z" fill="#171717"/>
</g>
</svg>
