<svg width="18" height="18" viewBox="0 0 18 18" fill="none" xmlns="http://www.w3.org/2000/svg">
<g clip-path="url(#clip0_1_1200)">
<path d="M12.4727 1.50537L13.3885 3.22261L15.1058 4.13848L13.3885 5.05434L12.4727 6.77157L11.5568 5.05434L9.83957 4.13848L11.5568 3.22261L12.4727 1.50537ZM8.0745 7.14773L11.5467 8.9996L8.0745 10.8514L6.22266 14.3236L4.37081 10.8514L0.89859 8.9996L4.37081 7.14773L6.22266 3.67551L8.0745 7.14773ZM8.59534 8.9996L7.04794 8.17432L6.22266 6.6269L5.39738 8.17432L3.84998 8.9996L5.39738 9.82488L6.22266 11.3722L7.04794 9.82488L8.59534 8.9996ZM14.3245 12.0088L13.1671 9.8387L12.0097 12.0088L9.83957 13.1663L12.0097 14.3236L13.1671 16.4938L14.3245 14.3236L16.4946 13.1663L14.3245 12.0088Z" fill="#171717"/>
</g>
<defs>
<clipPath id="clip0_1_1200">
<rect width="16.6667" height="16.6667" fill="white" transform="translate(0.666656 0.666504)"/>
</clipPath>
</defs>
</svg>
